HIERARCHY
ROOT hip
{
  OFFSET -5.55376 84.1819 36.8418
  CHANNELS 6 Xposition Yposition Zposition Zrotation Xrotation Yrotation
  JOINT abdomen
  {
    OFFSET 0 20.6881 -0.73152
    CHANNELS 3 Zrotation Xrotation Yrotation
    JOINT chest
    {
      OFFSET 0 11.7043 -0.48768
      CHANNELS 3 Zrotation Xrotation Yrotation
      JOINT neck
      {
        OFFSET 0 22.1894 -2.19456
        CHANNELS 3 Zrotation Xrotation Yrotation
        JOINT head
        {
          OFFSET -0.24384 7.07133 1.2192
          CHANNELS 3 Zrotation Xrotation Yrotation
          JOINT leftEye
          {
            OFFSET 4.14528 8.04674 8.04672
            CHANNELS 3 Zrotation Xrotation Yrotation
            End Site
            {
              OFFSET 1 0 0
            }
          }
          JOINT rightEye
          {
            OFFSET -3.6576 8.04674 8.04672
            CHANNELS 3 Zrotation Xrotation Yrotation
            End Site
            {
              OFFSET 1 0 0
            }
          }
        }
      }
      JOINT rCollar
      {
        OFFSET -2.68224 19.2634 -4.8768
        CHANNELS 3 Zrotation Xrotation Yrotation
        JOINT rShldr
        {
          OFFSET -8.77824 -1.95073 1.46304
          CHANNELS 3 Zrotation Xrotation Yrotation
          JOINT rForeArm
          {
            OFFSET -28.1742 -1.7115 0.48768
            CHANNELS 3 Zrotation Xrotation Yrotation
            JOINT rHand
            {
              OFFSET -22.5879 0.773209 7.07136
              CHANNELS 3 Zrotation Xrotation Yrotation
              JOINT rThumb1
              {
                OFFSET -1.2192 -0.487915 3.41376
                CHANNELS 3 Zrotation Xrotation Yrotation
                JOINT rThumb2
                {
                  OFFSET -3.37035 -0.52449 3.41376
                  CHANNELS 3 Zrotation Xrotation Yrotation
                  End Site
                  {
                    OFFSET -1.78271 -1.18214 1.43049
                  }
                }
              }
              JOINT rIndex1
              {
                OFFSET -7.75947 0.938293 5.60832
                CHANNELS 3 Zrotation Xrotation Yrotation
                JOINT rIndex2
                {
                  OFFSET -2.54057 -0.884171 1.56538
                  CHANNELS 3 Zrotation Xrotation Yrotation
                  End Site
                  {
                    OFFSET -1.62519 -0.234802 1.16502
                  }
                }
              }
              JOINT rMid1
              {
                OFFSET -8.24714 1.18213 3.41376
                CHANNELS 3 Zrotation Xrotation Yrotation
                JOINT rMid2
                {
                  OFFSET -3.10165 -0.590103 1.0647
                  CHANNELS 3 Zrotation Xrotation Yrotation
                  End Site
                  {
                    OFFSET -2.48547 -0.328903 0.83742
                  }
                }
              }
              JOINT rRing1
              {
                OFFSET -8.82822 0.546677 1.51678
                CHANNELS 3 Zrotation Xrotation Yrotation
                JOINT rRing2
                {
                  OFFSET -2.60934 -0.819778 -0.0198488
                  CHANNELS 3 Zrotation Xrotation Yrotation
                  End Site
                  {
                    OFFSET -2.33842 -0.294052 0.168128
                  }
                }
              }
              JOINT rPinky1
              {
                OFFSET -8.27202 -0.0477905 -0.4584
                CHANNELS 3 Zrotation Xrotation Yrotation
                JOINT rPinky2
                {
                  OFFSET -1.82734 -0.647385 -0.700984
                  CHANNELS 3 Zrotation Xrotation Yrotation
                  End Site
                  {
                    OFFSET -1.69225 -0.51767 -0.607171
                  }
                }
              }
            }
          }
        }
      }
      JOINT lCollar
      {
        OFFSET 2.68224 19.2634 -4.8768
        CHANNELS 3 Zrotation Xrotation Yrotation
        JOINT lShldr
        {
          OFFSET 8.77824 -1.95073 1.46304
          CHANNELS 3 Zrotation Xrotation Yrotation
          JOINT lForeArm
          {
            OFFSET 28.1742 -1.7115 0.48768
            CHANNELS 3 Zrotation Xrotation Yrotation
            JOINT lHand
            {
              OFFSET 22.5879 0.773209 7.07136
              CHANNELS 3 Zrotation Xrotation Yrotation
              JOINT lThumb1
              {
                OFFSET 1.2192 -0.487915 3.41376
                CHANNELS 3 Zrotation Xrotation Yrotation
                JOINT lThumb2
                {
                  OFFSET 3.37035 -0.52449 3.41376
                  CHANNELS 3 Zrotation Xrotation Yrotation
                  End Site
                  {
                    OFFSET 1.78271 -1.18214 1.43049
                  }
                }
              }
              JOINT lIndex1
              {
                OFFSET 7.75947 0.938293 5.60832
                CHANNELS 3 Zrotation Xrotation Yrotation
                JOINT lIndex2
                {
                  OFFSET 2.54057 -0.884171 1.56538
                  CHANNELS 3 Zrotation Xrotation Yrotation
                  End Site
                  {
                    OFFSET 1.62519 -0.234802 1.16502
                  }
                }
              }
              JOINT lMid1
              {
                OFFSET 8.24714 1.18213 3.41376
                CHANNELS 3 Zrotation Xrotation Yrotation
                JOINT lMid2
                {
                  OFFSET 3.10165 -0.590103 1.0647
                  CHANNELS 3 Zrotation Xrotation Yrotation
                  End Site
                  {
                    OFFSET 2.48547 -0.328903 0.83742
                  }
                }
              }
              JOINT lRing1
              {
                OFFSET 8.82822 0.546677 1.51678
                CHANNELS 3 Zrotation Xrotation Yrotation
                JOINT lRing2
                {
                  OFFSET 2.60934 -0.819778 -0.0198488
                  CHANNELS 3 Zrotation Xrotation Yrotation
                  End Site
                  {
                    OFFSET 2.33842 -0.294052 0.168128
                  }
                }
              }
              JOINT lPinky1
              {
                OFFSET 8.27202 -0.0477905 -0.4584
                CHANNELS 3 Zrotation Xrotation Yrotation
                JOINT lPinky2
                {
                  OFFSET 1.82734 -0.647385 -0.700984
                  CHANNELS 3 Zrotation Xrotation Yrotation
                  End Site
                  {
                    OFFSET 1.69225 -0.51767 -0.607171
                  }
                }
              }
            }
          }
        }
      }
    }
  }
  JOINT rButtock
  {
    OFFSET -8.77824 4.35084 1.2192
    CHANNELS 3 Zrotation Xrotation Yrotation
    JOINT rThigh
    {
      OFFSET 0 -1.70687 -2.19456
      CHANNELS 3 Zrotation Xrotation Yrotation
      JOINT rShin
      {
        OFFSET 0 -36.8199 0.73152
        CHANNELS 3 Zrotation Xrotation Yrotation
        JOINT rFoot
        {
          OFFSET 0.73152 -45.1104 -5.12064
          CHANNELS 3 Zrotation Xrotation Yrotation
          End Site
          {
            OFFSET -1.1221 -3.69964 12.103
          }
        }
      }
    }
  }
  JOINT lButtock
  {
    OFFSET 8.77824 4.35084 1.2192
    CHANNELS 3 Zrotation Xrotation Yrotation
    JOINT lThigh
    {
      OFFSET 0 -1.70687 -2.19456
      CHANNELS 3 Zrotation Xrotation Yrotation
      JOINT lShin
      {
        OFFSET 0 -36.8199 0.73152
        CHANNELS 3 Zrotation Xrotation Yrotation
        JOINT lFoot
        {
          OFFSET -0.73152 -45.1104 -5.12064
          CHANNELS 3 Zrotation Xrotation Yrotation
          End Site
          {
            OFFSET 1.1221 -3.69964 12.103
          }
        }
      }
    }
  }
}
MOTION
Frames:	8
Frame Time:	0.00833333
-7.21755 82.9065 46.9648 -13.4876 -4.14687 -25.9084 -0.998142 -9.54796 -2.15589 2.7577 -0.996481 -0.664064 -10.6497 9.43822 -10.6533 7.9401 -18.8943 -18.5354 -0 0 0 -0 0 0 2.55907e-013 1.71236e-013 1.13591e-012 -15.519 -45.4945 -29.0363 -24.4806 -20.0231 51.1672 -7.89497 -59.4585 -13.7801 2.14113e-009 1.07249e-008 -7.8923e-009 4.05645e-009 1.84369e-008 -1.34732e-008 2.14113e-009 1.07249e-008 -7.89232e-009 7.73091 5.47488 0.417314 2.14113e-009 1.07249e-008 -7.89231e-009 2.90554 0.965183 0.102902 2.14113e-009 1.07249e-008 -7.89231e-009 10.2786 0.731801 0.0259123 2.14112e-009 1.07249e-008 -7.8923e-009 2.22167 -0.733487 -0.20892 2.55782e-013 1.71244e-013 1.13566e-012 8.69196 -44.7308 3.34174 24.3798 -19.8242 -50.8346 11.3404 -65.1509 17.6663 3.99376e-010 -1.38278e-010 -6.99734e-009 1.08037e-009 -5.23649e-011 -1.20168e-008 3.9937e-010 -1.38278e-010 -6.99734e-009 -7.73091 5.47488 -0.417314 3.99377e-010 -1.38278e-010 -6.99734e-009 -2.90554 0.965183 -0.102902 3.9937e-010 -1.3828e-010 -6.99734e-009 -10.2786 0.731801 -0.0259123 3.99378e-010 -1.3828e-010 -6.99735e-009 -2.22167 -0.733487 0.20892 -2.03217e-016 0 -3.88251e-019 -0.135596 15.3817 21.236 0.00529704 -1.25601 0.0487281 -1.83287 -11.2699 -6.80763 2.03217e-016 0 3.88251e-019 10.704 10.4297 -5.54414 0.0175414 25.6083 -0.961296 18.6107 -33.1824 29.7693 
-7.26785 82.9064 46.8182 -13.49 -4.03405 -26.2176 -1.01272 -9.56201 -2.14233 2.7948 -1.01889 -0.660229 -10.4641 9.31631 -10.4356 7.84937 -18.6597 -18.1361 -0 0 0 -0 0 0 3.62869e-013 2.28294e-013 9.35639e-013 -15.3779 -45.5391 -28.9903 -24.4618 -19.9857 51.1046 -7.87312 -59.4131 -13.7547 2.04359e-009 8.0442e-009 -5.86234e-009 3.78889e-009 1.38257e-008 -9.98857e-009 2.04359e-009 8.04421e-009 -5.86235e-009 7.73091 5.47488 0.417314 2.04359e-009 8.04421e-009 -5.86234e-009 2.90554 0.965183 0.102902 2.04359e-009 8.04421e-009 -5.86234e-009 10.2786 0.731801 0.0259123 2.04358e-009 8.04421e-009 -5.86233e-009 2.22167 -0.733487 -0.20892 3.62697e-013 2.28313e-013 9.35363e-013 8.746 -44.6294 3.43278 24.388 -19.8403 -50.8617 11.4819 -65.336 17.822 9.94349e-010 -3.14506e-010 -5.25156e-009 2.00188e-009 -3.77673e-010 -8.98392e-009 9.94346e-010 -3.14507e-010 -5.25156e-009 -7.73091 5.47488 -0.417314 9.94351e-010 -3.14506e-010 -5.25157e-009 -2.90554 0.965183 -0.102902 9.94346e-010 -3.14508e-010 -5.25157e-009 -10.2786 0.731801 -0.0259123 9.94353e-010 -3.14507e-010 -5.25157e-009 -2.22167 -0.733487 0.20892 -2.03217e-016 0 -3.88251e-019 -0.0807166 15.192 21.4921 0.00542589 -1.27052 0.0499146 -1.83312 -11.281 -6.80101 2.03217e-016 0 3.88251e-019 10.7392 10.3885 -5.38432 0.016305 25.5589 -0.961216 18.6935 -33.2554 29.8507 
-7.35233 82.9094 46.6609 -13.4939 -3.92367 -26.4953 -1.02409 -9.57404 -2.12552 2.82858 -1.03806 -0.655347 -10.2345 9.14162 -10.1483 7.76103 -18.3293 -17.6036 -0 0 0 -0 0 0 4.53825e-013 2.85702e-013 6.48491e-013 -15.2767 -45.5547 -29.0091 -24.4431 -19.9487 51.0427 -7.84856 -59.3619 -13.7262 1.82203e-009 4.69925e-009 -3.34524e-009 3.28524e-009 8.07378e-009 -5.67214e-009 1.82203e-009 4.69925e-009 -3.34525e-009 7.73091 5.47488 0.417314 1.82203e-009 4.69925e-009 -3.34524e-009 2.90554 0.965183 0.102902 1.82203e-009 4.69925e-009 -3.34524e-009 10.2786 0.731801 0.0259123 1.82202e-009 4.69925e-009 -3.34523e-009 2.22167 -0.733487 -0.20892 4.53611e-013 2.85729e-013 6.48197e-013 8.77173 -44.5878 3.50552 24.3953 -19.8544 -50.8855 11.6044 -65.4939 17.9568 1.55512e-009 -4.79978e-010 -3.06526e-009 2.83997e-009 -6.96513e-010 -5.19513e-009 1.55512e-009 -4.79978e-010 -3.06525e-009 -7.73091 5.47488 -0.417314 1.55512e-009 -4.79977e-010 -3.06526e-009 -2.90554 0.965183 -0.102902 1.55512e-009 -4.79979e-010 -3.06526e-009 -10.2786 0.731801 -0.0259123 1.55512e-009 -4.79977e-010 -3.06526e-009 -2.22167 -0.733487 0.20892 -2.03217e-016 0 -3.88251e-019 -0.0106469 15.0085 21.7146 0.00554577 -1.28186 0.0510116 -1.8387 -11.2964 -6.81307 2.03217e-016 0 3.88251e-019 10.7935 10.3385 -5.22276 0.015407 25.5156 -0.960616 18.7421 -33.3164 29.8896 
-7.44709 82.923 46.5203 -13.4977 -3.83029 -26.7383 -1.02737 -9.57805 -2.09259 2.84823 -1.05142 -0.645944 -9.93225 8.89923 -9.74169 7.71855 -17.8651 -16.8396 -0 0 0 -0 0 0 5.00225e-013 3.32354e-013 3.91357e-013 -15.2139 -45.5263 -29.102 -24.4281 -19.9192 50.9934 -7.82161 -59.3056 -13.6948 1.61239e-009 2.01965e-009 -1.34714e-009 2.82826e-009 3.46729e-009 -2.24714e-009 1.61238e-009 2.01965e-009 -1.34714e-009 7.73091 5.47488 0.417314 1.61238e-009 2.01965e-009 -1.34714e-009 2.90554 0.965183 0.102902 1.61239e-009 2.01965e-009 -1.34713e-009 10.2786 0.731801 0.0259123 1.61238e-009 2.01965e-009 -1.34713e-009 2.22167 -0.733487 -0.20892 4.99993e-013 3.32381e-013 3.91059e-013 8.74409 -44.637 3.5024 24.3917 -19.8474 -50.8733 11.6571 -65.561 18.0147 1.91187e-009 -5.82894e-010 -1.31529e-009 3.35299e-009 -9.04327e-010 -2.16733e-009 1.91187e-009 -5.82895e-010 -1.31529e-009 -7.73091 5.47488 -0.417314 1.91188e-009 -5.82893e-010 -1.3153e-009 -2.90554 0.965183 -0.102902 1.91187e-009 -5.82894e-010 -1.31529e-009 -10.2786 0.731801 -0.0259123 1.91188e-009 -5.82892e-010 -1.3153e-009 -2.22167 -0.733487 0.20892 -2.03217e-016 0 -3.88251e-019 0.0620446 14.8436 21.9018 0.00565188 -1.28888 0.0519692 -1.85083 -11.3213 -6.84681 2.03217e-016 0 3.88251e-019 10.8535 10.2939 -5.06632 0.0150301 25.48 -0.959608 18.7552 -33.3594 29.8872 
-7.51177 82.9364 46.4049 -13.5026 -3.75558 -26.9531 -1.02508 -9.58217 -2.03896 2.85231 -1.05232 -0.630853 -9.56487 8.57599 -9.18728 7.74169 -17.2353 -15.7826 -0 0 0 -0 0 0 4.85173e-013 3.84705e-013 1.09172e-013 -15.1893 -45.4525 -29.2787 -24.4193 -19.9017 50.9643 -7.7889 -59.2369 -13.6568 1.4222e-009 -1.90172e-010 2.53935e-010 2.42607e-009 -3.27963e-010 4.96396e-010 1.4222e-009 -1.90172e-010 2.53937e-010 7.73091 5.47488 0.417314 1.4222e-009 -1.9017e-010 2.53936e-010 2.90554 0.965183 0.102902 1.4222e-009 -1.9017e-010 2.53939e-010 10.2786 0.731801 0.0259123 1.4222e-009 -1.90169e-010 2.53944e-010 2.22167 -0.733487 -0.20892 4.84964e-013 3.84716e-013 1.08894e-013 8.63265 -44.8521 3.36588 24.3707 -19.8064 -50.8038 11.5853 -65.4694 17.9358 2.04687e-009 -6.17173e-010 1.15077e-010 3.50399e-009 -9.94476e-010 2.99062e-010 2.04687e-009 -6.17173e-010 1.15083e-010 -7.73091 5.47488 -0.417314 2.04688e-009 -6.17172e-010 1.15075e-010 -2.90554 0.965183 -0.102902 2.04687e-009 -6.17173e-010 1.15076e-010 -10.2786 0.731801 -0.0259123 2.04688e-009 -6.17172e-010 1.1507e-010 -2.22167 -0.733487 0.20892 -2.03217e-016 0 -3.88251e-019 0.135896 14.6981 22.0605 0.00575824 -1.29208 0.0529129 -1.87281 -11.3599 -6.91212 2.03217e-016 0 3.88251e-019 10.9111 10.2598 -4.92571 0.0153422 25.4535 -0.958643 18.748 -33.3886 29.8623 
-7.55022 82.9421 46.3028 -13.5092 -3.69235 -27.139 -1.01856 -9.58635 -1.97187 2.84611 -1.04414 -0.612009 -9.13649 8.18127 -8.51778 7.77991 -16.4562 -14.5055 -0 0 0 -0 0 0 4.26991e-013 4.42204e-013 -2.31659e-013 -15.2028 -45.3401 -29.531 -24.4141 -19.8916 50.9474 -7.75153 -59.1581 -13.6133 1.18854e-009 -2.45597e-009 1.86448e-009 1.95031e-009 -4.21663e-009 3.25434e-009 1.18854e-009 -2.45597e-009 1.86448e-009 7.73091 5.47488 0.417314 1.18854e-009 -2.45597e-009 1.86449e-009 2.90554 0.965183 0.102902 1.18855e-009 -2.45597e-009 1.86449e-009 10.2786 0.731801 0.0259123 1.18854e-009 -2.45597e-009 1.86449e-009 2.22167 -0.733487 -0.20892 4.26829e-013 4.42188e-013 -2.31901e-013 8.45583 -45.1941 3.13879 24.3388 -19.744 -50.6987 11.4311 -65.27 17.7662 2.04149e-009 -6.07864e-010 1.57666e-009 3.41268e-009 -1.01564e-009 2.81169e-009 2.04149e-009 -6.07863e-010 1.57667e-009 -7.73091 5.47488 -0.417314 2.0415e-009 -6.07862e-010 1.57666e-009 -2.90554 0.965183 -0.102902 2.04148e-009 -6.07863e-010 1.57666e-009 -10.2786 0.731801 -0.0259123 2.0415e-009 -6.07863e-010 1.57665e-009 -2.22167 -0.733487 0.20892 -2.03217e-016 0 -3.88251e-019 0.216321 14.5663 22.1891 0.00586194 -1.29181 0.0538231 -1.90313 -11.4085 -7.0044 2.03217e-016 0 3.88251e-019 10.9748 10.2281 -4.7943 0.0162061 25.435 -0.95752 18.7157 -33.4052 29.8079 
-7.59773 82.9412 46.1901 -13.5161 -3.64172 -27.2817 -1.00118 -9.5723 -1.89622 2.82888 -1.03927 -0.590583 -8.6129 7.73386 -7.77541 7.76997 -15.5619 -13.1115 -0 0 0 -0 0 0 3.49949e-013 4.68246e-013 -4.82043e-013 -15.2522 -45.1864 -29.8415 -24.4094 -19.8823 50.9318 -7.71639 -59.0835 -13.5723 9.4164e-010 -3.94338e-009 2.90523e-009 1.47896e-009 -6.76832e-009 5.03241e-009 9.41642e-010 -3.94338e-009 2.90523e-009 7.73091 5.47488 0.417314 9.41639e-010 -3.94338e-009 2.90523e-009 2.90554 0.965183 0.102902 9.41649e-010 -3.94338e-009 2.90523e-009 10.2786 0.731801 0.0259123 9.41638e-010 -3.94338e-009 2.90523e-009 2.22167 -0.733487 -0.20892 3.49841e-013 4.68204e-013 -4.82252e-013 8.26454 -45.5228 2.91594 24.3054 -19.679 -50.59 11.285 -65.0774 17.6052 1.87464e-009 -5.49864e-010 2.54366e-009 3.07243e-009 -9.46254e-010 4.46577e-009 1.87463e-009 -5.49862e-010 2.54366e-009 -7.73091 5.47488 -0.417314 1.87464e-009 -5.49862e-010 2.54366e-009 -2.90554 0.965183 -0.102902 1.87462e-009 -5.49864e-010 2.54366e-009 -10.2786 0.731801 -0.0259123 1.87464e-009 -5.49864e-010 2.54365e-009 -2.22167 -0.733487 0.20892 -2.03217e-016 0 -3.88251e-019 0.300893 14.4501 22.2741 0.00593269 -1.28668 0.0544319 -1.93573 -11.46 -7.1049 2.03217e-016 0 3.88251e-019 11.0563 10.1937 -4.65294 0.0173482 25.4219 -0.955374 18.6277 -33.3989 29.6868 
-7.64827 82.9427 46.0865 -13.5217 -3.60483 -27.3668 -0.966445 -9.52174 -1.81696 2.7999 -1.05013 -0.567751 -7.96171 7.25319 -7.00201 7.65758 -14.5914 -11.7007 -0 0 0 -0 0 0 2.78316e-013 4.26222e-013 -4.92887e-013 -15.3353 -44.9887 -30.1927 -24.4017 -19.8672 50.9063 -7.69019 -59.0276 -13.5418 7.1171e-010 -3.81803e-009 2.7969e-009 1.09001e-009 -6.55263e-009 4.83629e-009 7.11712e-010 -3.81803e-009 2.79689e-009 7.73091 5.47488 0.417314 7.11709e-010 -3.81803e-009 2.7969e-009 2.90554 0.965183 0.102902 7.11719e-010 -3.81803e-009 2.7969e-009 10.2786 0.731801 0.0259123 7.11707e-010 -3.81803e-009 2.7969e-009 2.22167 -0.733487 -0.20892 2.7825e-013 4.26167e-013 -4.93085e-013 8.1153 -45.6986 2.79601 24.2805 -19.6306 -50.5094 11.2321 -65.0069 17.5468 1.5252e-009 -4.38074e-010 2.49027e-009 2.47664e-009 -7.64733e-010 4.35648e-009 1.5252e-009 -4.38071e-010 2.49027e-009 -7.73091 5.47488 -0.417314 1.52521e-009 -4.38072e-010 2.49027e-009 -2.90554 0.965183 -0.102902 1.52519e-009 -4.38073e-010 2.49026e-009 -10.2786 0.731801 -0.0259123 1.52521e-009 -4.38074e-010 2.49026e-009 -2.22167 -0.733487 0.20892 -2.03217e-016 0 -3.88251e-019 0.387118 14.3512 22.3021 0.00594035 -1.27531 0.0544714 -1.96445 -11.5071 -7.19484 2.03217e-016 0 3.88251e-019 11.1674 10.1513 -4.48254 0.0184954 25.4116 -0.951338 18.4535 -33.3586 29.4617 
